<svg xmlns="http://www.w3.org/2000/svg" viewBox="0 0 64 64" fill="none">
  <defs>
    <linearGradient id="s" x1="16" y1="10" x2="48" y2="54" gradientUnits="userSpaceOnUse">
      <stop stop-color="#EAF2FF"/>
      <stop offset=".45" stop-color="#8FB4FF"/>
      <stop offset="1" stop-color="#6D6BFF"/>
    </linearGradient>
    <linearGradient id="r" x1="6" y1="40" x2="58" y2="24" gradientUnits="userSpaceOnUse">
      <stop stop-color="#9D7BFF"/>
      <stop offset=".5" stop-color="#5B8DEF"/>
      <stop offset="1" stop-color="#74E6FF"/>
    </linearGradient>
  </defs>
  <path d="M9 41c9 8 30 9 44-3 5-4 6-9 2-11-3-1.5-7 0-7 0" stroke="url(#r)" stroke-width="4" stroke-linecap="round" fill="none"/>
  <path d="M32 12l5.4 12.9L51 26.4l-9.8 9.1 2.6 13.4L32 42.6l-11.8 6.3 2.6-13.4L13 26.4l13.6-1.5L32 12z" fill="url(#s)"/>
  <path d="M32 17l3 7-7 4 4-11z" fill="#fff" opacity=".55"/>
  <circle cx="52" cy="16" r="1.4" fill="#EAF2FF"/>
  <circle cx="48" cy="46" r="1" fill="#74E6FF"/>
</svg>
