<svg xmlns="http://www.w3.org/2000/svg" viewBox="0 0 512 512" fill="none">
  <defs>
    <linearGradient id="bg" x1="0" y1="0" x2="512" y2="512" gradientUnits="userSpaceOnUse">
      <stop stop-color="#0B1030"/>
      <stop offset="1" stop-color="#1A0E38"/>
    </linearGradient>
    <linearGradient id="s" x1="150" y1="110" x2="380" y2="430" gradientUnits="userSpaceOnUse">
      <stop stop-color="#EAF2FF"/>
      <stop offset=".45" stop-color="#8FB4FF"/>
      <stop offset="1" stop-color="#6D6BFF"/>
    </linearGradient>
    <linearGradient id="r" x1="60" y1="330" x2="460" y2="200" gradientUnits="userSpaceOnUse">
      <stop stop-color="#9D7BFF"/>
      <stop offset=".5" stop-color="#5B8DEF"/>
      <stop offset="1" stop-color="#74E6FF"/>
    </linearGradient>
    <radialGradient id="glow" cx=".5" cy=".45" r=".5">
      <stop stop-color="#6D8BFF" stop-opacity=".55"/>
      <stop offset="1" stop-color="#6D8BFF" stop-opacity="0"/>
    </radialGradient>
  </defs>
  <rect width="512" height="512" rx="112" fill="url(#bg)"/>
  <circle cx="256" cy="248" r="200" fill="url(#glow)"/>
  <path d="M72 330c72 64 240 72 352-24 40-32 48-72 16-88-24-12-56 0-56 0" stroke="url(#r)" stroke-width="30" stroke-linecap="round" fill="none" opacity=".92"/>
  <path d="M256 96l43 103 109 12-78 73 21 107-95-50-95 50 21-107-78-73 109-12 43-103z" fill="url(#s)"/>
  <path d="M256 136l24 56-56 32 32-88z" fill="#fff" opacity=".5"/>
  <circle cx="416" cy="128" r="10" fill="#EAF2FF"/>
  <circle cx="112" cy="160" r="7" fill="#EAF2FF" opacity=".8"/>
  <circle cx="384" cy="372" r="7" fill="#74E6FF" opacity=".8"/>
</svg>
